<?xml version="1.0" encoding="utf-8"?>
<!-- Generator: Adobe Illustrator 22.1.0, SVG Export Plug-In . SVG Version: 6.00 Build 0)  -->
<svg version="1.1" id="Layer_1" xmlns="http://www.w3.org/2000/svg" xmlns:xlink="http://www.w3.org/1999/xlink" x="0px" y="0px"
	 width="429.7px" height="50.9px" viewBox="0 0 429.7 50.9" style="enable-background:new 0 0 429.7 50.9;" xml:space="preserve">
<style type="text/css">
	.st0{fill:#FFFFFF;}
</style>
<title>logo-secret-escapes</title>
<g>
	<g>
		<g>
			<path class="st0" d="M64.7,19.4c0.7-0.3,1.4-0.5,1.8-0.7l1.3-0.3v-1.5H53.8v1.5l3.6,0.6c1.4,0.2,2,0.6,2,1c0,0.6-1,3.4-3.1,8.5
				c-2.5,6.1-4.1,10.1-4.9,12l-8-18.6c-0.4-1-0.6-1.6-0.6-2c0-0.5,0.9-0.9,2.7-1.2l2.5-0.4v-1.5H34.1c-2.7-5.7-7.3-8.5-13.8-8.5
				c-5.4,0-10.1,1.9-13.9,5.8C2.1,18.4,0,24.1,0,31.1c0,6,2,10.9,5.9,14.6c3.7,3.5,8.5,5.3,14.2,5.3c3.5,0,6.9-0.6,10.2-1.9
				c2.4-1,4.1-2,5.2-3l-1.1-2c-3.7,1.9-7,2.8-9.9,2.8c-5.3,0-9.4-2-12.5-5.9c-2.3-3-3.6-6.3-3.9-9.9c10.9-2.5,20.1-5.6,27.7-9.4
				c-0.2-0.8-0.4-1.5-0.6-2.2c0.2,0.1,0.3,0.2,0.4,0.4c0.5,0.5,1,1.4,1.7,2.9l11.3,25.2c0.4,0,0.9-0.2,1.5-0.5
				c0.7-0.4,1.1-0.7,1.3-0.9c1.3-2.8,2.4-5.3,3.5-7.8l4.1-8.8C62.1,23.4,63.9,20,64.7,19.4z M8.1,27.2c0-4,0.7-7.4,2.1-10.3
				c1.7-3.6,4.2-5.4,7.6-5.4c5.1,0,8.4,3.6,10.1,10.7C21.5,24.3,14.9,25.9,8.1,27.2z M118.1,11.2c1.1,0,2.1-0.4,2.8-1.1
				c0.7-0.7,1.1-1.6,1.1-2.6c0-1-0.4-1.9-1.1-2.6c-0.7-0.7-1.7-1.1-2.8-1.1c-1.1,0-2.1,0.4-2.8,1.1c-0.7,0.7-1.1,1.6-1.1,2.6
				c0,1,0.4,1.8,1.1,2.6C116,10.8,117,11.2,118.1,11.2z M153.4,20.1c-3.1-2.8-7.2-4.2-12.2-4.2c-4.7,0-8.6,1.4-11.8,4.1
				c-3.5,3.1-5.3,7.2-5.3,12.4c0,4.9,1.7,8.8,5,11.6c3.1,2.5,7,3.8,11.8,3.8c4.8,0,8.8-1.4,12-4.1c3.5-3,5.2-7.2,5.2-12.6
				C158,26.5,156.5,22.9,153.4,20.1z M149.2,41.8c-1.7,2.5-4.1,3.8-7.2,3.8c-3.7,0-6.6-1.4-8.7-4.2c-1.9-2.5-2.8-5.7-2.8-9.7
				c0-3.6,0.7-6.7,2.2-9.1c1.7-2.9,4.3-4.3,7.6-4.3c3.9,0,6.8,1.4,8.7,4.3c1.7,2.6,2.6,6,2.6,10.3C151.6,36.5,150.8,39.5,149.2,41.8
				z M423.8,29.8c-9.1-4.2-9.1-6.1-9.1-7.7c0-3.3,3.1-3.3,3.4-3.3c4.4,0,6.2,5.6,6.4,7.5h3.2c0-2.8,0-5.8-0.7-8.6
				c-1.7-0.8-4.5-1.9-9-1.9c-8.1,0-12.3,3-13.1,7.7c-1.5-3.8-4.8-7.7-12.4-7.7c-9.5,0-17.2,5.4-17.2,16.4c0,4.7,1.5,8.3,4,10.9
				c-0.6,0.1-1.2,0.3-2,0.3c-6,0-6.1-5.8-6.1-12.7V19.8c2.1-0.1,5.2-0.4,7.4-0.7v-1.7c-2.7-0.2-4.5-0.3-7.4-0.5l0-9.3
				c0,0-10.8-1.1-10.8,6.1l0,3.1v8c-1.2-4.2-4.3-9-12.9-9c-4.4,0-8.5,1.2-11.5,3.5c-0.8-1.5-2.2-3.5-5.5-3.5c-3.6,0-6,2.9-7.7,4.6
				c-0.2-2.3-0.3-2.9-0.7-4.6c-4.4,0.8-7.3,1.4-12.4,2.9c0-0.1,0-0.2,0-0.3c-0.8-0.1-1.2-2.7-10.2-2.7c-8.7,0-13.7,4.4-16.2,8.8
				c-1.2-4.1-4.4-8.8-12.8-8.8c-9.5,0-17.2,5.4-17.2,16.4c0,0.7,0,1.4,0.1,2.1c-0.9-1.7-2.5-3.4-4.8-4.5c-9.1-4.2-9.1-6.1-9.1-7.7
				c0-3.3,3.1-3.3,3.4-3.3c4.4,0,6.2,5.6,6.4,7.5h3.2c0-2.8,0-5.8-0.7-8.6c-1.7-0.8-4.5-1.9-9-1.9c-8.9,0-13.2,3.6-13.2,9.3
				c0,6.4,5.8,8.5,10.1,10.7c3.6,1.9,4.8,4,4.8,5.4c0,1.9-0.5,3.7-3.8,3.7c-3.1,0-6.9-3.3-7.6-9.3h-3.8c0,3.6,0.6,7.6,1.1,10.1
				c3.3,1.5,6.2,2.3,10.2,2.3c7.3,0,13.6-2.5,13.9-9.4c2.4,6.3,8.6,9.4,16,9.4c7.4,0,11.8-3.1,13.7-4.8l-0.3-1.1
				c2.4,3.2,6.8,5.9,14.9,5.9c6.3,0,11.1-3.2,11.8-3.8l-0.7-1.5c-1.3,0.3-2.8,0.5-5.4,0.5c-6.3,0-11.7-4.2-11.7-13.7
				c0-5.6,1.8-10,5.2-10c3.4,0,6.4,4.2,7.4,5.4h1c1.5-1.3,2.3-2.5,2.9-3.8h1.6c1.9,0,1.9,2.5,1.9,6.9l-0.1,19.9
				c0,0,10.8,1.1,10.8-6.1l0.1-2.8V22.8c0.5,0.1,1.1,0.2,1.6,0.3c3,0.8,4.7,2.5,6.5,2.7c-0.7,1.9-1,4-1,6.3
				c0,10.5,7.5,15.8,17.1,15.8c7.4,0,11.8-3.1,13.7-4.8l-0.5-1.7c-1.1,0.5-3.3,1.7-7.2,1.7c-8.2-0.1-10.2-5.5-10.9-9.7
				c6-1.3,12.4-3,17.8-5.2v10.2c0,9.4,7.2,9.4,8.1,9.4c7.3,0,10.4-2.2,12.3-3.4c3,2.3,7,3.4,11.5,3.4c6.5,0,10.7-2.4,12.9-4.2
				c0.1,0.7,0.2,1.3,0.3,1.9c3.3,1.5,6.2,2.3,10.2,2.3c7.5,0,13.9-2.6,13.9-9.9C429.7,35.3,428,31.7,423.8,29.8z M264.8,26.6
				c0-3.2,0.5-7.8,4-7.8c4.4,0,5,7.9,5.1,9.7c-3.2,0.9-5.7,1.2-9,1.6C264.9,28.9,264.8,27.8,264.8,26.6z M276.4,43.2
				c-8.2-0.1-10.2-5.5-10.9-9.7c5.3-1.1,11-2.6,15.9-4.5c-0.4,1.3-0.5,2.5-0.5,3.3c0,1.4,0,5.5,2.4,9.2
				C282.3,42,280.1,43.2,276.4,43.2z M342,30.1c0-1.2-0.1-2.3-0.1-3.5c0-3.2,0.5-7.8,4-7.8c4.4,0,5,7.9,5.1,9.7
				C347.8,29.4,345.3,29.7,342,30.1z M386.9,26.6c0-3.2,0.5-7.8,4-7.8c4.4,0,5,7.9,5.1,9.7c-3.2,0.9-5.7,1.2-9,1.6
				C387,28.9,386.9,27.8,386.9,26.6z M415.9,45c-3.1,0-6.9-3.3-7.6-9.3h-3.8c0,2.1,0.2,4.2,0.4,6.1c-1.2,0.6-3.3,1.4-6.5,1.4
				c-8.2-0.1-10.2-5.5-10.9-9.7c6-1.3,12.4-3,17.8-5.2c1.6,4,6,5.7,9.6,7.5c3.6,1.9,4.8,4,4.8,5.4C419.7,43.1,419.2,45,415.9,45z
				 M208.3,31.5c-2.5-1.2-4.9-2.4-7.4-3.6c-2.7-1.4-4.1-3.1-4.1-5.1c0-1.4,0.4-2.6,1.2-3.4c0.8-0.8,1.9-1.3,3.3-1.3
				c2.1,0,3.8,0.9,5.1,2.8c1.1,1.5,1.7,3.2,1.7,4.9h2.2c0-3.2-0.3-5.9-0.9-8c-2.3-1.3-4.8-1.9-7.4-1.9c-3.2,0-5.8,0.7-8,2.2
				c-2.1,1.5-3.2,3.5-3.2,6.1c0,3,1.4,5.4,4.1,7c2.5,1.2,4.9,2.4,7.4,3.6c2.7,1.4,4.1,3.4,4.1,5.9c0,1.2-0.5,2.3-1.4,3.4
				c-0.9,1-2.1,1.5-3.6,1.5c-4.4,0-7.5-2.9-9.4-8.6H190c0,3.1,0.4,5.8,1.1,8.1l-0.1,0c-1.5-0.2-2.5-0.7-2.9-1.4
				c-0.2-0.4-0.3-1.6-0.3-3.4v-9.8c0-5-0.4-8.4-1.3-10.2c-1.5-3-4.7-4.5-9.6-4.5c-3.9,0-7.5,1.4-10.7,4.1v-4.1
				c-2,0-5.6,0.8-10.8,2.3l0.3,1.6l1.5-0.4c0,0,0.2,0,0.4-0.1h0.6c0.9,0,1.5,0.6,1.7,1.7c0.1,0.8,0.2,3,0.2,6.6v12.8
				c0,1.8-0.1,2.9-0.3,3.4c-0.4,0.8-1.3,1.3-2.8,1.4l-1.7,0.2v1.4h15.6v-1.4l-1.6-0.2c-1.5-0.2-2.5-0.7-2.9-1.4
				c-0.2-0.4-0.3-1.6-0.3-3.4V22.6c2-2.4,4.4-3.6,7.2-3.6c3.7,0,6.1,1.3,7.3,4c0.7,1.6,1,4.5,1,8.6v8.8c0,1.8-0.1,2.9-0.3,3.4
				c-0.4,0.8-1.3,1.3-2.8,1.4l-1.7,0.2v1.4h16.8c2.1,0.7,4.3,1,6.3,1c3.5,0,6.3-0.7,8.5-2.2c2.4-1.7,3.6-4,3.6-7
				C212.4,35.6,211,33.3,208.3,31.5z M349.7,12.5l-8.9-5v4l8.9,3V12.5z M24.4,0l-11,6v1.4l11-3.9V0z M122,43.8
				c-0.2-0.4-0.3-1.6-0.3-3.4V15.9c-1.9,0-6.1,0.9-11.2,2.4c0-0.2-0.1-0.3-0.1-0.5c-2.3-1.3-4.8-1.9-7.4-1.9c-3.2,0-5.8,0.7-8,2.2
				c-2.1,1.5-3.2,3.5-3.2,6.1c0,3,1.4,5.4,4.1,7c2.5,1.2,4.9,2.4,7.4,3.6c2.7,1.4,4.1,3.4,4.1,5.9c0,1.2-0.5,2.3-1.4,3.4
				c-0.9,1-2.1,1.5-3.6,1.5c-4.4,0-7.5-2.9-9.4-8.6h-1.9c0,3.2,0.4,6,1.2,8.4c-0.1,0-0.3,0-0.4,0c-1.7,0-2.8-1-3.4-3
				C88.1,41.3,88,39.1,88,36v-9.4c0-3.6-0.6-6.3-1.8-7.8c-1.4-1.9-4.1-2.8-7.8-2.8c-5.6,0-10.3,2.3-14,7c0.4,0.9,1,1.8,1.8,2.6h0.6
				c1.2-2.1,2.1-3.5,2.7-4.2C71,19.8,73,19,75.4,19c4.3,0,6.5,2.7,6.5,8.1v1.5c-5.7,1.6-9.5,2.9-11.4,3.8c-4.6,2.3-6.9,5.3-6.9,9
				c0,1.8,0.8,3.4,2.4,4.6c1.6,1.2,3.7,1.8,6.3,1.8c3.9,0,7.3-0.9,10.3-2.8c0.9,1.8,2.8,2.8,5.5,2.8c1.8,0,3.5-0.5,5.2-1.6
				c2.7,1,5.4,1.6,8,1.6c3.5,0,6.3-0.7,8.5-2.2c2.4-1.7,3.6-4,3.6-7c0-3-1.4-5.4-4.1-7.1c-2.5-1.2-4.9-2.4-7.4-3.6
				c-2.7-1.4-4.1-3.1-4.1-5.1c0-1.4,0.4-2.6,1.2-3.4c0.8-0.8,1.9-1.3,3.3-1.3c2.1,0,3.8,0.9,5.1,2.8c1.1,1.5,1.7,3.2,1.7,4.9h2.2
				c0-2.3-0.2-4.2-0.5-5.9l1.9-0.5c0,0,0.2,0,0.4-0.1h0.6c0.9,0,1.5,0.6,1.7,1.7c0.1,0.8,0.2,3,0.2,6.6c0,0,0,13.5,0,16.4
				c0,2.3,1.4,2.9,2.5,2.9c0.6,0,8.4,0,8.4,0v-1.4l-1.6-0.2C123.4,45,122.4,44.5,122,43.8z M81.9,42.8c-1.4,1.8-3.1,2.7-5.3,2.7
				c-2,0-3.6-0.5-4.8-1.6c-1.2-1.1-1.7-2.5-1.7-4.4c0-2.8,1.3-4.8,3.9-6.3c2-1.1,4.3-1.6,6.9-1.6h1V42.8z"/>
		</g>
	</g>
</g>
</svg>
